Coordinates
version=1
nRows=30
nColumns=19
inDegrees=yes

Units are S.I. units (second, meters, Newtons, ...)
If the header above contains a line with 'inDegrees', this indicates whether rotational values are in degrees (yes) or radians (no).

endheader
time	pelvis_tilt	pelvis_list	pelvis_rotation	pelvis_tx	pelvis_ty	pelvis_tz	hip_flexion_r	hip_adduction_r	hip_rotation_r	knee_angle_r	knee_angle_r_beta	ankle_angle_r	hip_flexion_l	hip_adduction_l	hip_rotation_l	knee_angle_l	knee_angle_l_beta	ankle_angle_l
     12.21333333	     -6.86685236	     -6.25616467	     -6.06533017	      2.27519231	      0.99111602	      1.03080562	     33.12461660	     10.23349631	     -3.24892540	     16.26203091	      0.28382598	      2.37858738	    -13.61354518	    -10.17653455	    -16.41086508	     59.89852277	      1.04542644	    -16.62128576
     12.22000000	     -6.15531116	     -6.86303947	     -6.68173510	      2.27430467	      0.98811031	      1.03183478	     32.42575418	     10.84015916	     -4.10848918	     18.75243061	      0.32729166	      2.58661760	    -12.91910533	    -11.43104817	    -17.41877388	     64.10834954	      1.11890178	    -16.31525664
     12.22666667	     -5.79053832	     -7.41800835	     -7.25119078	      2.27331553	      0.98441216	      1.03294388	     32.19317139	     11.30462534	     -5.12502513	     21.75629833	      0.37971904	      2.98497989	    -11.72468773	    -12.80887358	    -18.30078570	     68.32174836	      1.19243946	    -15.92520666
     12.23333333	     -6.05400491	     -7.71040334	     -7.72052535	      2.27208489	      0.97980844	      1.03406711	     32.74436238	     11.46272177	     -6.06465235	     25.19460040	      0.43972873	      3.64341925	     -9.55442782	    -13.97663070	    -18.61016524	     72.55264853	      1.26628260	    -15.41035527
     12.24000000	     -5.70025123	     -8.13479410	     -8.10812454	      2.27076657	      0.97589262	      1.03501401	     32.48902972	     11.66218450	     -6.77678343	     28.60856612	      0.49931367	      4.68732107	     -8.04616640	    -15.24323899	    -18.91214758	     76.47499973	      1.33474054	    -14.80232965
     12.24666667	     -5.28653207	     -8.51616604	     -8.37099203	      2.26925775	      0.97214253	      1.03582913	     32.04767521	     11.79169483	     -7.22237535	     31.94000890	      0.55745832	      6.13071346	     -6.42559540	    -16.44504924	    -18.91251181	     80.20796366	      1.39989305	    -14.08616861
     12.25333333	     -4.81385860	     -8.89162836	     -8.50483703	      2.26754942	      0.96873430	      1.03647620	     31.35839937	     11.91783168	     -7.40462881	     35.02389332	      0.61128226	      7.91563942	     -4.67723556	    -17.58279936	    -18.58751123	     83.72587383	      1.46129217	    -13.27367289
     12.26000000	     -3.97881028	     -9.31701503	     -8.61534344	      2.26562002	      0.96615965	      1.03705184	     30.02810658	     12.15820396	     -7.19512090	     37.72285865	      0.65838809	     10.03250045	     -3.24414750	    -18.66596312	    -18.18496144	     86.91367109	      1.51692973	    -12.40154647
     12.26666667	     -3.85032000	     -9.49455029	     -8.41329768	      2.26347175	      0.96331189	      1.03730030	     29.30630229	     12.11724604	     -7.07523658	     40.09444942	      0.69978015	     12.28892406	     -0.53376740	    -19.40909849	    -16.93582055	     90.01304026	      1.57102392	    -11.47808962
     12.27333333	     -3.19388517	     -9.74963608	     -8.26222505	      2.26125407	      0.96167506	      1.03753658	     27.67759796	     12.23776504	     -6.59879607	     41.91090888	      0.73148335	     14.81493618	      1.56917988	    -20.07111222	    -15.81604101	     92.66111258	      1.61724150	    -10.47728079
     12.28000000	     -2.55636948	     -9.87924276	     -8.16442533	      2.25889199	      0.96072354	      1.03779834	     25.79983405	     12.36012116	     -5.74713015	     43.24134835	      0.75470390	     17.25269239	      3.78859585	    -20.50544606	    -14.68299124	     94.94049340	      1.65702420	     -9.72167689
     12.28666667	     -2.90005065	     -9.71663223	     -7.44313920	      2.25654784	      0.95940786	      1.03728023	     24.80558713	     11.91768691	     -5.73767570	     44.10775385	      0.76982553	     19.51854251	      7.76953362	    -20.26251002	    -12.26458035	     97.10776539	      1.69485024	     -8.93559219
     12.29333333	     -2.74926922	     -9.51187218	     -6.93179853	      2.25445902	      0.95933544	      1.03698470	     22.92885814	     11.57342892	     -5.26259342	     44.41766062	      0.77523442	     21.73187873	     10.93143093	    -19.85815829	    -10.39770306	     98.69699901	      1.72258759	     -8.21741774
     12.30000000	     -2.98835396	     -9.08747928	     -6.41183598	      2.25259191	      0.95942627	      1.03665039	     21.25328081	     11.04975201	     -4.75435038	     44.32127393	      0.77355216	     23.64156071	     14.52498890	    -19.07394434	     -8.55455240	     99.90829630	      1.74372872	     -7.56985128
     12.30666667	     -2.98062558	     -8.56327311	     -5.76999758	      2.25114830	      0.96046368	      1.03618623	     19.02445263	     10.36698311	     -4.35254467	     43.69970098	      0.76270366	     25.22397209	     17.70643160	    -17.99252139	     -6.83560774	    100.61320861	      1.75603176	     -7.01824514
     12.31333333	     -3.28262642	     -7.86931415	     -5.14974074	      2.25018024	      0.96166474	      1.03577748	     16.92586215	      9.54674804	     -3.97524177	     42.71740268	      0.74555932	     26.40248120	     21.05354199	    -16.64139459	     -5.32398245	    100.90048662	      1.76104571	     -6.54115992
     12.32000000	     -3.55456154	     -7.02977482	     -4.53523553	      2.24967155	      0.96342382	      1.03542324	     14.60285712	      8.59254849	     -3.60469506	     41.37548253	      0.72213840	     27.08016126	     24.11320649	    -15.08334175	     -4.12726126	    100.71552884	      1.75781759	     -6.11610981
     12.32666667	     -3.90000195	     -6.08265743	     -3.94738346	      2.24973193	      0.96554796	      1.03516299	     12.18961991	      7.54179082	     -3.29314715	     39.71500230	      0.69315755	     27.23223959	     26.97123894	    -13.42630297	     -3.25856602	    100.09223563	      1.74693907	     -5.73656650
     12.33333333	     -4.24001464	     -5.06094132	     -3.38354261	      2.25026482	      0.96806434	      1.03496028	      9.64262859	      6.42310151	     -3.06364215	     37.78792750	      0.65952375	     26.76766476	     29.54051210	    -11.73046417	     -2.70377967	     99.05426582	      1.72882308	     -5.34982848
     12.34000000	     -4.46658266	     -3.96848513	     -2.84647562	      2.25131647	      0.97104496	      1.03480609	      6.86880174	      5.23802677	     -2.90479141	     35.62383361	      0.62175319	     25.73060642	     31.69231575	    -10.03297796	     -2.47033268	     97.60384160	      1.70350840	     -4.99474309
     12.34666667	     -4.57182443	     -2.84490467	     -2.41994518	      2.25277911	      0.97445559	      1.03477853	      3.89766002	      4.04296180	     -2.73944735	     33.26355484	      0.58055855	     24.03745455	     33.42159845	     -8.43874864	     -2.57440127	     95.78221350	      1.67171499	     -4.59762521
     12.35333333	     -4.48736299	     -1.74017524	     -2.19670259	      2.25460848	      0.97833631	      1.03495187	      0.68943095	      2.88494114	     -2.47562104	     30.73285548	      0.53638952	     21.70920825	     34.64153264	     -7.10287946	     -3.08767357	     93.60897779	      1.63378487	     -4.11989229
     12.36000000	     -4.46360016	     -0.63512197	     -2.05020411	      2.25668562	      0.98227763	      1.03511923	     -2.39754321	      1.70920549	     -2.31827825	     28.18475825	      0.49191683	     18.80343301	     35.73218095	     -5.85270769	     -3.77331456	     91.15516180	      1.59095770	     -3.65128096
     12.36666667	     -4.53460724	      0.38946105	     -1.99583240	      2.25891842	      0.98617143	      1.03523316	     -5.27895623	      0.58630723	     -2.27281251	     25.69087449	      0.44839035	     15.33130742	     36.74655050	     -4.77258283	     -4.58774261	     88.45709816	      1.54386761	     -3.10120518
     12.37333333	     -4.48258482	      1.32650682	     -2.08834893	      2.26131110	      0.99022268	      1.03543104	     -8.20608891	     -0.46978259	     -2.17868902	     23.20170935	      0.40494622	     11.44304082	     37.43403692	     -3.95061743	     -5.62242059	     85.50965401	      1.49242500	     -2.55355554
     12.38000000	     -4.47362111	      2.15891322	     -2.33145932	      2.26366583	      0.99419317	      1.03567721	    -10.87277572	     -1.46965342	     -2.08248618	     20.93135445	      0.36532105	      7.21646656	     38.00467418	     -3.35933546	     -6.81158115	     82.35068313	      1.43729056	     -1.95590095
     12.38666667	     -4.58901780	      2.85891570	     -2.63251425	      2.26603533	      0.99793087	      1.03586128	    -13.20626044	     -2.37146084	     -2.00264161	     18.89410083	      0.32976427	      2.84250270	     38.57813791	     -2.97080415	     -8.07106936	     79.00318307	      1.37886566	     -1.38446818
     12.39333333	     -4.76906305	      3.40451432	     -2.97347064	      2.26829822	      1.00143067	      1.03598505	    -15.22711895	     -3.15488323	     -1.95287340	     17.18681565	      0.29996652	     -1.53031797	     39.09859485	     -2.77441194	     -9.36238154	     75.48619448	      1.31748263	     -0.82399026
     12.40000000	     -5.04179557	      3.82729021	     -3.31614615	      2.27046270	      1.00466604	      1.03606831	    -16.88566946	     -3.83484576	     -1.90568130	     15.87344599	      0.27704390	     -5.71449051	     39.58370303	     -2.72593435	    -10.70221091	     71.78578246	      1.25289826	     -0.30434239
     12.40666667	     -5.43092145	      4.11333323	     -3.61350865	      2.27248295	      1.00752391	      1.03597142	    -18.13825821	     -4.38346571	     -1.84789913	     15.04448377	      0.26257578	     -9.53996026	     40.07737393	     -2.76732715	    -12.01317709	     67.92321731	      1.18548378	      0.19466229
